<svg id="Clipper" xmlns="http://www.w3.org/2000/svg" xmlns:xlink="http://www.w3.org/1999/xlink" viewBox="0 0 2560 1440"><defs><style>.cls-1{fill:none;}.cls-2{clip-path:url(#clip-path);}.cls-3{fill:#9b9b9b;}.cls-10,.cls-4,.cls-5,.cls-6,.cls-7,.cls-8,.cls-9{fill:#666;}.cls-4{opacity:0.7;}.cls-5{opacity:0.65;}.cls-6{opacity:0.66;}.cls-7{opacity:0.68;}.cls-16,.cls-8{opacity:0.77;}.cls-10{opacity:0.8;}.cls-11,.cls-12,.cls-13{fill:#fff4d7;}.cls-12{opacity:0.43;}.cls-13,.cls-43{opacity:0.18;}.cls-14,.cls-15,.cls-16,.cls-17,.cls-18,.cls-19,.cls-20,.cls-21,.cls-22,.cls-23,.cls-24,.cls-25,.cls-26,.cls-27,.cls-28,.cls-29,.cls-30,.cls-31,.cls-32,.cls-33,.cls-34,.cls-35,.cls-36,.cls-37,.cls-38,.cls-39,.cls-40,.cls-41,.cls-42,.cls-43,.cls-44,.cls-45,.cls-46{fill:#878787;}.cls-15{opacity:0.44;}.cls-17{opacity:0.58;}.cls-18{opacity:0.46;}.cls-19{opacity:0.21;}.cls-20{opacity:0.07;}.cls-21{opacity:0.36;}.cls-22{opacity:0.11;}.cls-23{opacity:0.5;}.cls-24{opacity:0.23;}.cls-25{opacity:0.09;}.cls-26{opacity:0.28;}.cls-27{opacity:0.37;}.cls-28{opacity:0.14;}.cls-29{opacity:0.24;}.cls-30{opacity:0.22;}.cls-31{opacity:0.3;}.cls-32{opacity:0.2;}.cls-33{opacity:0.47;}.cls-34{opacity:0;}.cls-35{opacity:0.87;}.cls-36{opacity:0.74;}.cls-37{opacity:0.81;}.cls-38{opacity:0.56;}.cls-39{opacity:0.91;}.cls-40{opacity:0.78;}.cls-41{opacity:0.49;}.cls-42{opacity:0.13;}.cls-44{opacity:0.35;}.cls-45{opacity:0.15;}.cls-46{opacity:0.12;}</style><clipPath id="clip-path"><rect class="cls-1" width="2560" height="1440"/></clipPath></defs><g class="cls-2"><g id="Bottom_copy" data-name="Bottom copy"><g id="col1_copy" data-name="col1 copy"><path class="cls-3" d="M4.7166,1276.7487,252.113,1091.8664,317,1143l45.51,27.3416,118.3779-41.2327L576,1166l90.0721,19.626,42.2612-17.9446,14.631,23.9416,112.9128-9.4094c26.2542-2.1878,2.8049-1.2313,2.8049-1.2313L925,1133.0664c3.99,2.66,24.894,21.3526,28.1414,20.2l112.9857-40.1181,159.6106,41.2328L1273,1223.0664l77.766,112.2062,123.6982,6.65L1608.8032,1447-24.5454,1465.6212Z"/><path class="cls-3" d="M-2,1280l254-190,64,54,46.51,24.2753L481,1125l3,3,94,38,88.0721,17.56,42.2612-17.9446,14.631,23.9416S789.8048,1182.6147,837,1180c.1952-.0108,1-1,1-1l87-48c3.99,2.66,24.894,21.3526,28.1414,20.2C980.7489,1141.3969,1047,1118,1047,1118l19-6,25.4449,5.6219,25.7906,6.6626,32.6872-6.5526h5.32l10.6407,19.9513,59.854,14.631L1271,1222l80,112,123.4642,5.8567,134.339,105.0769L-24.5454,1463.5549Z"/><path class="cls-3" d="M4.7166,1276.7487,252.113,1091.8664,317,1143l45.51,27.3416,118.3779-41.2327L576,1166l90.0721,19.626,42.2612-17.9446,14.631,23.9416,112.9128-9.4094c26.2542-2.1878,2.8049-1.2313,2.8049-1.2313L925,1133.0664c3.99,2.66,24.894,21.3526,28.1414,20.2l112.9857-40.1181,159.6106,41.2328L1273,1223.0664l77.766,112.2062,123.6982,6.65L1608.8032,1447-24.5454,1465.6212Z"/><path class="cls-3" d="M-2,1280l254-190,64,54,46.51,24.2753L481,1125l3,3,94,38,88.0721,17.56,42.2612-17.9446,14.631,23.9416S789.8048,1182.6147,837,1180c.1952-.0108,1-1,1-1l87-48c3.99,2.66,24.894,21.3526,28.1414,20.2C980.7489,1141.3969,1047,1118,1047,1118l19-6,25.4449,5.6219,25.7906,6.6626,32.6872-6.5526h5.32l10.6407,19.9513,59.854,14.631L1271,1222l80,112,123.4642,5.8567,134.339,105.0769L-24.5454,1463.5549Z"/></g><g id="col2_copy" data-name="col2 copy"><path class="cls-4" d="M689.7121,1190.8868C653.3606,1179.864,578,1166,578,1166s-66.8882-28.0425-97-41l-118.49,43.2753-396.3663,156.95,23.1936,138.1709,482.24.1583Z"/><polygon class="cls-5" points="-5 1283 252 1090 316 1144 362.51 1168.275 144.376 1451.584 -3.264 1451.584 -5 1283"/><polygon class="cls-6" points="1337.465 1313.255 1351 1334 1474.464 1339.857 1608.803 1442.273 1615.454 1463.555 1442.542 1442.273 1096.719 1442.273 1337.465 1313.255"/><polygon class="cls-7" points="1066 1113 870.604 1306.604 814.74 1557.991 1417.27 1337.196 1351 1334 1225.738 1152.314 1165.884 1137.683 1149.923 1143.004 1131 1131 1116.67 1124.382 1103.37 1120.392 1066 1113"/><polygon class="cls-8" points="839.241 1179.276 882.575 1176.256 953 1151 544.732 1455.574 839.241 1179.276"/><polygon class="cls-9" points="711.98 1187.784 151.545 1442.273 655 1179 665.77 1182.906 708.333 1165.615 711.98 1187.784"/><polygon class="cls-10" points="1068 1115 1102.081 1120.717 616.557 1512.768 559.363 1428.973 810.75 1257.391 1007.603 1144.334 1066 1112 1068 1115"/><polygon class="cls-9" points="902.526 1439.613 857.303 1294.634 793.459 1329.216 417.044 1458.235 677.741 1530.059 902.526 1439.613"/><polygon class="cls-9" points="245.463 1390.4 182.948 1373.109 -65.778 1442.273 32.648 1557.991 245.463 1390.4"/><path class="cls-4" d="M689.7121,1190.8868C653.3606,1179.864,578,1166,578,1166s-66.8882-28.0425-97-41l-118.49,43.2753-396.3663,156.95,23.1936,138.1709,482.24.1583Z"/><polygon class="cls-5" points="-5 1283 252 1090 316 1144 362.51 1168.275 144.376 1451.584 -3.264 1451.584 -5 1283"/><polygon class="cls-6" points="1337.465 1313.255 1351 1334 1474.464 1339.857 1608.803 1442.273 1615.454 1463.555 1442.542 1442.273 1096.719 1442.273 1337.465 1313.255"/><polygon class="cls-7" points="1066 1113 870.604 1306.604 814.74 1557.991 1417.27 1337.196 1351 1334 1225.738 1152.314 1165.884 1137.683 1149.923 1143.004 1131 1131 1116.67 1124.382 1103.37 1120.392 1066 1113"/><polygon class="cls-8" points="839.241 1179.276 882.575 1176.256 953 1151 544.732 1455.574 839.241 1179.276"/><polygon class="cls-9" points="711.98 1187.784 151.545 1442.273 655 1179 665.77 1182.906 708.333 1165.615 711.98 1187.784"/><polygon class="cls-10" points="1068 1115 1102.081 1120.717 616.557 1512.768 559.363 1428.973 810.75 1257.391 1007.603 1144.334 1066 1112 1068 1115"/><polygon class="cls-9" points="902.526 1439.613 857.303 1294.634 793.459 1329.216 417.044 1458.235 677.741 1530.059 902.526 1439.613"/><polygon class="cls-9" points="245.463 1390.4 182.948 1373.109 -65.778 1442.273 32.648 1557.991 245.463 1390.4"/></g><g id="col3_copy" data-name="col3 copy"><polygon class="cls-11" points="1473 1335 1606 1440 1347 1441 1473 1335"/><polygon class="cls-11" points="1227 1152 1274.951 1218.489 1354 1334 981.001 1449.924 1227 1152"/><polygon class="cls-11" points="252 1090 179.623 1240.694 362.51 1168.275 318 1142 252 1090"/><polygon class="cls-11" points="481 1125 410.04 1307.259 655.13 1178.916 578 1164 481 1125"/><polygon class="cls-11" points="677.517 1203.433 722.964 1189.557 708.333 1165.615 677.517 1203.433"/><polygon class="cls-11" points="953 1151 925 1131 883.905 1176.256 953 1151"/><polygon class="cls-11" points="1066 1111 1047 1118 1047 1155 1103.37 1120.392 1066 1111"/><polygon class="cls-11" points="890.555 1331.876 907.847 1442.273 765.527 1530.059 677.741 1492.817 802 1440 827 1423 857.303 1294.634 890.555 1331.876"/><polygon class="cls-11" points="245.463 1390.4 290.759 1456.382 88.512 1503.458 182.948 1373.109 245.463 1390.4"/><polygon class="cls-11" points="1156 1117 1149.923 1117.732 1132 1188 1167 1138 1156 1117"/><polygon class="cls-12" points="1226 1152 1167.214 1137.683 1145.932 1164.285 1111 1223 1226 1152"/><polygon class="cls-13" points="1131 1131 1132 1188 1145 1137 1149.923 1117.732 1131 1131"/><polygon class="cls-11" points="1474 1335 1426 1337 1348 1440 1489 1368 1474 1335"/><polygon class="cls-11" points="1473 1335 1606 1440 1347 1441 1473 1335"/><polygon class="cls-11" points="1227 1152 1274.951 1218.489 1354 1334 981.001 1449.924 1227 1152"/><polygon class="cls-11" points="252 1090 179.623 1240.694 362.51 1168.275 318 1142 252 1090"/><polygon class="cls-11" points="481 1125 410.04 1307.259 655.13 1178.916 578 1164 481 1125"/><polygon class="cls-11" points="677.517 1203.433 722.964 1189.557 708.333 1165.615 677.517 1203.433"/><polygon class="cls-11" points="953 1151 925 1131 883.905 1176.256 953 1151"/><polygon class="cls-11" points="1066 1111 1047 1118 1047 1155 1103.37 1120.392 1066 1111"/><polygon class="cls-11" points="890.555 1331.876 907.847 1442.273 765.527 1530.059 677.741 1492.817 802 1440 827 1423 857.303 1294.634 890.555 1331.876"/><polygon class="cls-11" points="245.463 1390.4 290.759 1456.382 88.512 1503.458 182.948 1373.109 245.463 1390.4"/><polygon class="cls-11" points="1156 1117 1149.923 1117.732 1132 1188 1167 1138 1156 1117"/><polygon class="cls-12" points="1226 1152 1167.214 1137.683 1145.932 1164.285 1111 1223 1226 1152"/><polygon class="cls-13" points="1131 1131 1132 1188 1145 1137 1149.923 1117.732 1131 1131"/><polygon class="cls-11" points="1474 1335 1426 1337 1348 1440 1489 1368 1474 1335"/></g><g id="col4_copy" data-name="col4 copy"><polygon class="cls-14" points="857.303 1294.634 793.459 1329.216 804.1 1369.119 827 1423 857.303 1294.634"/><polygon class="cls-15" points="1442 1374 1426 1337 1348 1440 1415 1403 1442 1374"/><polygon class="cls-14" points="1225.738 1152.314 1109 1224 986.489 1442.273 1225.738 1152.314"/><polygon class="cls-14" points="687.052 1174.261 677.741 1202.858 708.333 1165.615 687.052 1174.261"/><polygon class="cls-14" points="179 1241 189.636 1136.658 252 1090 179 1241"/><polygon class="cls-16" points="793.459 1329.216 704.343 1359.808 827 1423 793.459 1329.216"/><polygon class="cls-17" points="1426 1337 1415 1403 1348 1440 1426 1337"/><polygon class="cls-18" points="463.611 1442.273 704.343 1359.808 827 1423 463.611 1442.273"/><polygon class="cls-19" points="1442 1374 1607 1440 1415 1403 1442 1374"/><polygon class="cls-20" points="1442 1374 1453 1351 1605.472 1438.702 1442 1374"/><polygon class="cls-21" points="1426 1337 1453 1351 1442 1374 1426 1337"/><polygon class="cls-22" points="1474 1335 1453 1351 1426 1337 1474 1335"/><polygon class="cls-23" points="1415 1403 1612 1441 1348 1440 1415 1403"/><polygon class="cls-24" points="1210 1291 979 1451 1227 1151 1210 1291"/><polygon class="cls-17" points="1210 1291 1354 1334 979 1451 1210 1291"/><polygon class="cls-25" points="1262 1236 1210 1291 1227 1151 1262 1236"/><polygon class="cls-26" points="1262 1236 1354 1334 1210 1291 1262 1236"/><path class="cls-20" d="M1262,1236s92.033,98.0482,92,98l-74-109.1335Z"/><polygon class="cls-27" points="1153 1134 1132 1188 1144 1140 1153 1134"/><polygon class="cls-28" points="1144 1140 1153 1134 1150 1118 1144 1140"/><polygon class="cls-29" points="1153 1134 1167 1138 1132 1188 1153 1134"/><polygon class="cls-30" points="1150 1118 1153 1134 1156 1117 1150 1118"/><polygon class="cls-31" points="857 1401 827 1423 857 1295 857 1401"/><polygon class="cls-32" points="891 1332 857 1401 907.847 1440.943 891 1332"/><polygon class="cls-33" points="912 1444 857 1401 827 1423 912 1444"/><polygon class="cls-34" points="190 1418 245 1390 281.074 1442.273 190 1418"/><polygon class="cls-35" points="162 1401 124.626 1453.61 192 1456 190 1418 162 1401"/><polygon class="cls-36" points="192 1461 190 1418 295 1450 192 1461"/><polygon class="cls-22" points="244.016 1390 197 1393 190 1418 244.016 1390"/><polygon class="cls-23" points="162 1401 197 1393 190 1418 162 1401"/><polygon class="cls-32" points="183 1373 197 1393 162 1401 183 1373"/><polygon class="cls-21" points="245 1390 234 1412 190 1418 245 1390"/><polygon class="cls-37" points="281.074 1442.273 234 1412 190 1418 283.989 1446.714 281.074 1442.273"/><polygon class="cls-30" points="1068 1122 1047 1118 1066 1111 1068 1122"/><polygon class="cls-38" points="1104 1120 1068 1122 1047 1155 1104 1120"/><polygon class="cls-39" points="1068 1122 1047 1155 1046 1120 1047 1118 1068 1122"/><polygon class="cls-40" points="506 1219 410 1307 655 1180 506 1219"/><polygon class="cls-41" points="557 1189 506 1219 655 1180 557 1189"/><polygon class="cls-42" points="579 1164 557 1189 658 1180 579 1164"/><polygon class="cls-43" points="481 1125 557 1189 506 1219 481 1125"/><polygon class="cls-44" points="481 1125 506 1219 410 1307 481 1125"/><polygon class="cls-33" points="252 1090 271 1166 179 1241 252 1090"/><polygon class="cls-14" points="367 1169 180.022 1241 179 1241 271 1166 367 1169"/><polygon class="cls-23" points="300 1155 366 1169 271 1166 300 1155"/><polygon class="cls-24" points="318 1142 300 1155 361.79 1168.257 318 1142"/><polygon class="cls-45" points="252 1090 300 1155 271 1166 252 1090"/><polygon class="cls-14" points="827 1423 913 1441 795 1442 827 1423"/><polygon class="cls-46" points="902.193 1404.384 907.847 1440.943 857 1401 902.193 1404.384"/><polygon class="cls-18" points="1111 1223 1132 1188 1131 1131 1116 1124 1111 1223"/><polygon class="cls-14" points="857.303 1294.634 793.459 1329.216 804.1 1369.119 827 1423 857.303 1294.634"/><polygon class="cls-15" points="1442 1374 1426 1337 1348 1440 1415 1403 1442 1374"/><polygon class="cls-14" points="1225.738 1152.314 1109 1224 986.489 1442.273 1225.738 1152.314"/><polygon class="cls-14" points="687.052 1174.261 677.741 1202.858 708.333 1165.615 687.052 1174.261"/><polygon class="cls-14" points="179 1241 189.636 1136.658 252 1090 179 1241"/><polygon class="cls-16" points="793.459 1329.216 704.343 1359.808 827 1423 793.459 1329.216"/><polygon class="cls-17" points="1426 1337 1415 1403 1348 1440 1426 1337"/><polygon class="cls-18" points="463.611 1442.273 704.343 1359.808 827 1423 463.611 1442.273"/><polygon class="cls-19" points="1442 1374 1607 1440 1415 1403 1442 1374"/><polygon class="cls-20" points="1442 1374 1453 1351 1605.472 1438.702 1442 1374"/><polygon class="cls-21" points="1426 1337 1453 1351 1442 1374 1426 1337"/><polygon class="cls-22" points="1474 1335 1453 1351 1426 1337 1474 1335"/><polygon class="cls-23" points="1415 1403 1612 1441 1348 1440 1415 1403"/><polygon class="cls-24" points="1210 1291 979 1451 1227 1151 1210 1291"/><polygon class="cls-17" points="1210 1291 1354 1334 979 1451 1210 1291"/><polygon class="cls-25" points="1262 1236 1210 1291 1227 1151 1262 1236"/><polygon class="cls-26" points="1262 1236 1354 1334 1210 1291 1262 1236"/><path class="cls-20" d="M1262,1236s92.033,98.0482,92,98l-74-109.1335Z"/><polygon class="cls-27" points="1153 1134 1132 1188 1144 1140 1153 1134"/><polygon class="cls-28" points="1144 1140 1153 1134 1150 1118 1144 1140"/><polygon class="cls-29" points="1153 1134 1167 1138 1132 1188 1153 1134"/><polygon class="cls-30" points="1150 1118 1153 1134 1156 1117 1150 1118"/><polygon class="cls-31" points="857 1401 827 1423 857 1295 857 1401"/><polygon class="cls-32" points="891 1332 857 1401 907.847 1440.943 891 1332"/><polygon class="cls-33" points="912 1444 857 1401 827 1423 912 1444"/><polygon class="cls-34" points="190 1418 245 1390 281.074 1442.273 190 1418"/><polygon class="cls-35" points="162 1401 124.626 1453.61 192 1456 190 1418 162 1401"/><polygon class="cls-36" points="192 1461 190 1418 295 1450 192 1461"/><polygon class="cls-22" points="244.016 1390 197 1393 190 1418 244.016 1390"/><polygon class="cls-23" points="162 1401 197 1393 190 1418 162 1401"/><polygon class="cls-32" points="183 1373 197 1393 162 1401 183 1373"/><polygon class="cls-21" points="245 1390 234 1412 190 1418 245 1390"/><polygon class="cls-37" points="281.074 1442.273 234 1412 190 1418 283.989 1446.714 281.074 1442.273"/><polygon class="cls-30" points="1068 1122 1047 1118 1066 1111 1068 1122"/><polygon class="cls-38" points="1104 1120 1068 1122 1047 1155 1104 1120"/><polygon class="cls-39" points="1068 1122 1047 1155 1046 1120 1047 1118 1068 1122"/><polygon class="cls-40" points="506 1219 410 1307 655 1180 506 1219"/><polygon class="cls-41" points="557 1189 506 1219 655 1180 557 1189"/><polygon class="cls-42" points="579 1164 557 1189 658 1180 579 1164"/><polygon class="cls-43" points="481 1125 557 1189 506 1219 481 1125"/><polygon class="cls-44" points="481 1125 506 1219 410 1307 481 1125"/><polygon class="cls-33" points="252 1090 271 1166 179 1241 252 1090"/><polygon class="cls-14" points="367 1169 180.022 1241 179 1241 271 1166 367 1169"/><polygon class="cls-23" points="300 1155 366 1169 271 1166 300 1155"/><polygon class="cls-24" points="318 1142 300 1155 361.79 1168.257 318 1142"/><polygon class="cls-45" points="252 1090 300 1155 271 1166 252 1090"/><polygon class="cls-14" points="827 1423 913 1441 795 1442 827 1423"/><polygon class="cls-46" points="902.193 1404.384 907.847 1440.943 857 1401 902.193 1404.384"/><polygon class="cls-18" points="1111 1223 1132 1188 1131 1131 1116 1124 1111 1223"/></g></g></g></svg>