<svg id="Clipper" xmlns="http://www.w3.org/2000/svg" xmlns:xlink="http://www.w3.org/1999/xlink" viewBox="0 0 2560 1440"><defs><style>.cls-1{fill:none;}.cls-2{clip-path:url(#clip-path);}.cls-3{fill:#414140;}.cls-10,.cls-11,.cls-4,.cls-5,.cls-6,.cls-7,.cls-8,.cls-9{fill:#292929;}.cls-4{opacity:0.63;}.cls-5{opacity:0.7;}.cls-27,.cls-6{opacity:0.6;}.cls-7{opacity:0.32;}.cls-8{opacity:0.75;}.cls-9{opacity:0.82;}.cls-11,.cls-15,.cls-19{opacity:0.5;}.cls-12,.cls-13,.cls-14,.cls-15{fill:#b0b0b0;}.cls-12{opacity:0.62;}.cls-14{opacity:0.61;}.cls-16,.cls-17,.cls-18,.cls-19,.cls-20,.cls-21,.cls-22,.cls-23,.cls-24,.cls-25,.cls-26,.cls-27,.cls-28,.cls-29{fill:#3a3a3a;}.cls-16{opacity:0.22;}.cls-17{opacity:0.45;}.cls-18{opacity:0.19;}.cls-20{opacity:0.3;}.cls-21{opacity:0.12;}.cls-22{opacity:0.11;}.cls-23{opacity:0.29;}.cls-24{opacity:0.14;}.cls-25{opacity:0.39;}.cls-26{opacity:0.1;}.cls-28{opacity:0.34;}.cls-29{opacity:0.16;}</style><clipPath id="clip-path"><rect class="cls-1" width="2560" height="1440"/></clipPath></defs><g class="cls-2"><g id="Right"><g id="col1"><polygon class="cls-3" points="2085.994 4.727 2115 41 2101 61 2140 122 2172 139 2272 284 2403.885 253.453 2502.312 329.268 2560.836 334.588 2526.119 377.071 2464 459 2478.975 485.945 2535.564 567.354 2521 626 2491.671 684.402 2546.205 886.575 2524.923 1080.768 2453.099 1260.33 2494 1398 2541 1422 2569 1447 2586.108 1434.572 2610.049 813.42 2594.088 -16.555 2093.975 -3.254 2085.994 4.727"/></g><g id="col2"><polygon class="cls-4" points="2572.807 1446.542 2453 1260 2504 1133 2569 1210 2607.389 1413.29 2572.807 1446.542"/><polygon class="cls-5" points="2578.127 874.604 2546.6 891.194 2491.671 684.402 2521 626 2535.564 567.354 2596 599 2630 647.159 2578.127 874.604"/><polygon class="cls-6" points="2571.477 333.258 2502.312 329.268 2403.885 253.453 2079 -2 2633.991 -27.196 2626.01 261.434 2571.477 333.258"/><polygon class="cls-7" points="2453 1260 2618 1461 2569 1447 2453 1260"/><polygon class="cls-8" points="2460 458 2515 472 2672 589 2653 734 2460 458"/><polygon class="cls-9" points="2274 290 2404 253 2475 250 2694 104 2518 -58 2288 263 2274 290"/><polygon class="cls-10" points="2514 1108 2525 1081 2532 1017 2583 1164 2514 1108"/><line class="cls-10" x1="2488.9033" y1="1170.8185" x2="2453" y2="1260"/><polygon class="cls-10" points="2515 1235 2576 1333 2453 1260 2515 1235 2515 1235"/><polyline class="cls-10" points="2492 684 2607.906 869.032 2677 797 2551 645 2492 684"/><line class="cls-10" x1="2492" y1="684" x2="2551" y2="645"/><polyline class="cls-10" points="2536 567 2610 616 2460 458 2536 567"/><polyline class="cls-10" points="2419 265 2551 291 2672 267 2509 330 2419 265"/><polygon class="cls-11" points="2250 212 2613 4 2180 150 2258 269 2250 212"/><polygon class="cls-10" points="2227 200 2348 211 2509 -33 2499 -35 2290 168 2198 179 2227 200"/><polyline class="cls-4" points="2281 159 2319 -58 2101 62 2281 159"/></g><g id="col3"><polygon class="cls-12" points="2272.207 290.696 2403.885 253.453 2350 209 2260 200 2200 180 2272.207 290.696"/><polygon class="cls-13" points="2272.207 290.696 2319 250 2198 179 2272.207 290.696"/><polygon class="cls-13" points="2480 489 2517 473 2538 361 2459.749 458.287 2480 489"/><polygon class="cls-13" points="2513 1098 2509 1060 2532 1017 2542 1090 2514 1108 2513 1098"/><polygon class="cls-13" points="2492 684 2536 567 2551 645 2492 684"/><polygon class="cls-13" points="2504 1133 2515 1235 2453 1260 2453 1260 2473 1187 2504 1133"/><polygon class="cls-13" points="2411 259 2457 324 2509.165 330.22 2486 301 2411 259"/><polygon class="cls-14" points="2397 255 2304 250 2272 291 2397 255"/><polygon class="cls-13" points="2140 122 2284 159 2200 72 2101 61 2140 122"/><polygon class="cls-15" points="2198 179 2319 250 2348 209 2260 200 2198 179"/></g><g id="col4"><polygon class="cls-16" points="2284 159 2165 107 2200 72 2284 159"/><polygon class="cls-17" points="2101 61 2200 72 2165 107 2101 61"/><polygon class="cls-18" points="2165 107 2140 122 2101 62 2165 107"/><polygon class="cls-18" points="2411 259 2475 318 2486 301 2411 259"/><polygon class="cls-19" points="2475 318 2509 330 2486 301 2475 318"/><polygon class="cls-20" points="2457 324 2475 318 2509 330 2457 324"/><polyline class="cls-21" points="2539 362 2486 458 2517 473 2539 362"/><polygon class="cls-22" points="2460 458 2486 458 2480 489 2460 458"/><polygon class="cls-23" points="2480 489 2517 473 2486 458 2480 489"/><polygon class="cls-24" points="2536 567 2530 640 2515.5 620.858 2536 567"/><polygon class="cls-25" points="2551 645 2536 567 2530 640 2551 645"/><polygon class="cls-16" points="2530 640 2551 645 2492 684 2530 640"/><polygon class="cls-26" points="2525 1069 2532 1018 2509 1060 2525 1069"/><polygon class="cls-27" points="2525 1069 2531.879 1017.879 2542 1090 2525 1069"/><polygon class="cls-28" points="2514 1108 2525 1069 2542 1090 2514 1108"/><polygon class="cls-29" points="2453 1260 2473 1187 2494 1197 2453 1260"/><polygon class="cls-22" points="2494 1197 2504 1133 2515 1235 2494 1197"/><polygon class="cls-25" points="2494 1197 2453 1260 2515 1235 2494 1197"/></g></g></g></svg>