<svg id="Clipper" xmlns="http://www.w3.org/2000/svg" xmlns:xlink="http://www.w3.org/1999/xlink" viewBox="0 0 1440 2560"><defs><style>.cls-1{fill:none;}.cls-2{clip-path:url(#clip-path);}.cls-3{fill:#414140;}.cls-10,.cls-4,.cls-5,.cls-6,.cls-7,.cls-8,.cls-9{fill:#292929;}.cls-4{opacity:0.7;}.cls-5{opacity:0.65;}.cls-6{opacity:0.66;}.cls-7{opacity:0.68;}.cls-16,.cls-8{opacity:0.77;}.cls-10{opacity:0.8;}.cls-11,.cls-12,.cls-13{fill:#b0b0b0;}.cls-12{opacity:0.43;}.cls-13,.cls-43{opacity:0.18;}.cls-14,.cls-15,.cls-16,.cls-17,.cls-18,.cls-19,.cls-20,.cls-21,.cls-22,.cls-23,.cls-24,.cls-25,.cls-26,.cls-27,.cls-28,.cls-29,.cls-30,.cls-31,.cls-32,.cls-33,.cls-34,.cls-35,.cls-36,.cls-37,.cls-38,.cls-39,.cls-40,.cls-41,.cls-42,.cls-43,.cls-44,.cls-45,.cls-46{fill:#3a3a3a;}.cls-15{opacity:0.44;}.cls-17{opacity:0.58;}.cls-18{opacity:0.46;}.cls-19{opacity:0.21;}.cls-20{opacity:0.07;}.cls-21{opacity:0.36;}.cls-22{opacity:0.11;}.cls-23{opacity:0.5;}.cls-24{opacity:0.23;}.cls-25{opacity:0.09;}.cls-26{opacity:0.28;}.cls-27{opacity:0.37;}.cls-28{opacity:0.14;}.cls-29{opacity:0.24;}.cls-30{opacity:0.22;}.cls-31{opacity:0.3;}.cls-32{opacity:0.2;}.cls-33{opacity:0.47;}.cls-34{opacity:0;}.cls-35{opacity:0.87;}.cls-36{opacity:0.74;}.cls-37{opacity:0.81;}.cls-38{opacity:0.56;}.cls-39{opacity:0.91;}.cls-40{opacity:0.78;}.cls-41{opacity:0.49;}.cls-42{opacity:0.13;}.cls-44{opacity:0.35;}.cls-45{opacity:0.15;}.cls-46{opacity:0.12;}</style><clipPath id="clip-path"><rect class="cls-1" x="-560" y="560" width="2560" height="1440" transform="translate(-560 2000) rotate(-90)"/></clipPath></defs><g class="cls-2"><g id="Bottom"><g id="col1"><path class="cls-3" d="M-6.2375,2410.3266l222.9917-166.6443,58.4861,46.0894,41.0209,24.6445,106.7-37.1653,85.7294,33.252,81.1868,17.69,38.0923-16.1745,13.1877,21.58,101.7744-8.4812c23.6643-1.972,2.5281-1.11,2.5281-1.11l77.8031-43.1892c3.5966,2.3978,22.4383,19.2463,25.3654,18.207l101.84-36.1606,143.8656,37.1652,42.6,61.91,70.0946,101.1375,111.4959,5.9944,121.0868,94.7115L-32.6128,2580.5676Z"/><path class="cls-3" d="M-12.2915,2413.2572,216.6523,2242l57.6867,48.6731,41.9222,21.8806,106.8011-39.0063,2.7041,2.704,84.7272,34.2515,79.3841,15.8275,38.0923-16.1745,13.1877,21.58s60.247-6.2572,102.7865-8.614c.1759-.01.9013-.9013.9013-.9013l78.4178-43.265c3.5966,2.3978,22.4383,19.2463,25.3654,18.2069,24.8841-8.8356,84.6-29.9245,84.6-29.9245l17.1258-5.4081,22.9348,5.0673,23.2465,6.0053,29.4627-5.9061h4.7955l9.591,17.9831,53.95,13.1877,40.7974,62.8116L1207.24,2461.93l111.285,5.2789,121.0868,94.7115L-32.6128,2578.705Z"/><path class="cls-3" d="M-6.2375,2410.3266l222.9917-166.6443,58.4861,46.0894,41.0209,24.6445,106.7-37.1653,85.7294,33.252,81.1868,17.69,38.0923-16.1745,13.1877,21.58,101.7744-8.4812c23.6643-1.972,2.5281-1.11,2.5281-1.11l77.8031-43.1892c3.5966,2.3978,22.4383,19.2463,25.3654,18.207l101.84-36.1606,143.8656,37.1652,42.6,61.91,70.0946,101.1375,111.4959,5.9944,121.0868,94.7115L-32.6128,2580.5676Z"/><path class="cls-3" d="M-12.2915,2413.2572,216.6523,2242l57.6867,48.6731,41.9222,21.8806,106.8011-39.0063,2.7041,2.704,84.7272,34.2515,79.3841,15.8275,38.0923-16.1745,13.1877,21.58s60.247-6.2572,102.7865-8.614c.1759-.01.9013-.9013.9013-.9013l78.4178-43.265c3.5966,2.3978,22.4383,19.2463,25.3654,18.2069,24.8841-8.8356,84.6-29.9245,84.6-29.9245l17.1258-5.4081,22.9348,5.0673,23.2465,6.0053,29.4627-5.9061h4.7955l9.591,17.9831,53.95,13.1877,40.7974,62.8116L1207.24,2461.93l111.285,5.2789,121.0868,94.7115L-32.6128,2578.705Z"/></g><g id="col2"><path class="cls-4" d="M611.1857,2332.9346c-32.7656-9.9353-100.6921-22.4317-100.6921-22.4317s-60.29-25.2763-87.4313-36.9555l-106.8011,39.0063L-41.005,2454.0215l20.9056,124.5409,434.6688.1426Z"/><polygon class="cls-5" points="-14.996 2415.961 216.652 2242 274.339 2290.673 316.261 2312.554 119.645 2567.915 -13.431 2567.915 -14.996 2415.961"/><polygon class="cls-6" points="1195.04 2443.232 1207.24 2461.93 1318.525 2467.209 1439.612 2559.523 1445.606 2578.705 1289.752 2559.523 978.043 2559.523 1195.04 2443.232"/><polygon class="cls-7" points="950.354 2262.731 774.233 2437.237 723.88 2663.826 1266.973 2464.811 1207.24 2461.93 1094.334 2298.167 1040.385 2284.979 1025.998 2289.775 1008.942 2278.955 996.026 2272.991 984.037 2269.394 950.354 2262.731"/><polygon class="cls-8" points="745.964 2322.469 785.023 2319.747 848.501 2296.983 480.508 2571.512 745.964 2322.469"/><polygon class="cls-9" points="631.257 2330.138 126.106 2559.523 579.898 2322.22 589.606 2325.741 627.97 2310.156 631.257 2330.138"/><polygon class="cls-10" points="952.157 2264.534 982.876 2269.687 545.247 2623.064 493.695 2547.534 720.284 2392.879 897.718 2290.974 950.354 2261.83 952.157 2264.534"/><polygon class="cls-9" points="803.006 2557.125 762.245 2426.447 704.698 2457.618 365.415 2573.91 600.396 2638.649 803.006 2557.125"/><polygon class="cls-9" points="210.76 2512.767 154.412 2497.181 -69.778 2559.523 18.939 2663.826 210.76 2512.767"/><path class="cls-4" d="M611.1857,2332.9346c-32.7656-9.9353-100.6921-22.4317-100.6921-22.4317s-60.29-25.2763-87.4313-36.9555l-106.8011,39.0063L-41.005,2454.0215l20.9056,124.5409,434.6688.1426Z"/><polygon class="cls-5" points="-14.996 2415.961 216.652 2242 274.339 2290.673 316.261 2312.554 119.645 2567.915 -13.431 2567.915 -14.996 2415.961"/><polygon class="cls-6" points="1195.04 2443.232 1207.24 2461.93 1318.525 2467.209 1439.612 2559.523 1445.606 2578.705 1289.752 2559.523 978.043 2559.523 1195.04 2443.232"/><polygon class="cls-7" points="950.354 2262.731 774.233 2437.237 723.88 2663.826 1266.973 2464.811 1207.24 2461.93 1094.334 2298.167 1040.385 2284.979 1025.998 2289.775 1008.942 2278.955 996.026 2272.991 984.037 2269.394 950.354 2262.731"/><polygon class="cls-8" points="745.964 2322.469 785.023 2319.747 848.501 2296.983 480.508 2571.512 745.964 2322.469"/><polygon class="cls-9" points="631.257 2330.138 126.106 2559.523 579.898 2322.22 589.606 2325.741 627.97 2310.156 631.257 2330.138"/><polygon class="cls-10" points="952.157 2264.534 982.876 2269.687 545.247 2623.064 493.695 2547.534 720.284 2392.879 897.718 2290.974 950.354 2261.83 952.157 2264.534"/><polygon class="cls-9" points="803.006 2557.125 762.245 2426.447 704.698 2457.618 365.415 2573.91 600.396 2638.649 803.006 2557.125"/><polygon class="cls-9" points="210.76 2512.767 154.412 2497.181 -69.778 2559.523 18.939 2663.826 210.76 2512.767"/></g><g id="col3"><polygon class="cls-11" points="1317.205 2462.832 1437.085 2557.474 1203.635 2558.375 1317.205 2462.832"/><polygon class="cls-11" points="1095.472 2297.884 1138.693 2357.814 1209.944 2461.93 873.74 2566.419 1095.472 2297.884"/><polygon class="cls-11" points="216.652 2242 151.415 2377.828 316.261 2312.554 276.142 2288.87 216.652 2242"/><polygon class="cls-11" points="423.062 2273.547 359.103 2437.827 580.015 2322.145 510.494 2308.7 423.062 2273.547"/><polygon class="cls-11" points="600.194 2344.244 641.158 2331.736 627.97 2310.156 600.194 2344.244"/><polygon class="cls-11" points="848.501 2296.983 823.263 2278.955 786.222 2319.747 848.501 2296.983"/><polygon class="cls-11" points="950.354 2260.928 933.228 2267.238 933.228 2300.588 984.037 2269.394 950.354 2260.928"/><polygon class="cls-11" points="792.217 2460.016 807.802 2559.523 679.522 2638.649 600.396 2605.08 712.397 2557.474 734.931 2542.151 762.245 2426.447 792.217 2460.016"/><polygon class="cls-11" points="210.76 2512.767 251.588 2572.239 69.292 2614.671 154.412 2497.181 210.76 2512.767"/><polygon class="cls-11" points="1031.476 2266.337 1025.998 2266.996 1009.844 2330.333 1041.391 2285.265 1031.476 2266.337"/><polygon class="cls-12" points="1094.571 2297.884 1041.584 2284.979 1022.402 2308.957 990.915 2361.88 1094.571 2297.884"/><polygon class="cls-13" points="1008.942 2278.955 1009.844 2330.333 1021.561 2284.364 1025.998 2266.996 1008.942 2278.955"/><polygon class="cls-11" points="1318.106 2462.832 1274.841 2464.634 1204.536 2557.474 1331.627 2492.576 1318.106 2462.832"/><polygon class="cls-11" points="1317.205 2462.832 1437.085 2557.474 1203.635 2558.375 1317.205 2462.832"/><polygon class="cls-11" points="1095.472 2297.884 1138.693 2357.814 1209.944 2461.93 873.74 2566.419 1095.472 2297.884"/><polygon class="cls-11" points="216.652 2242 151.415 2377.828 316.261 2312.554 276.142 2288.87 216.652 2242"/><polygon class="cls-11" points="423.062 2273.547 359.103 2437.827 580.015 2322.145 510.494 2308.7 423.062 2273.547"/><polygon class="cls-11" points="600.194 2344.244 641.158 2331.736 627.97 2310.156 600.194 2344.244"/><polygon class="cls-11" points="848.501 2296.983 823.263 2278.955 786.222 2319.747 848.501 2296.983"/><polygon class="cls-11" points="950.354 2260.928 933.228 2267.238 933.228 2300.588 984.037 2269.394 950.354 2260.928"/><polygon class="cls-11" points="792.217 2460.016 807.802 2559.523 679.522 2638.649 600.396 2605.08 712.397 2557.474 734.931 2542.151 762.245 2426.447 792.217 2460.016"/><polygon class="cls-11" points="210.76 2512.767 251.588 2572.239 69.292 2614.671 154.412 2497.181 210.76 2512.767"/><polygon class="cls-11" points="1031.476 2266.337 1025.998 2266.996 1009.844 2330.333 1041.391 2285.265 1031.476 2266.337"/><polygon class="cls-12" points="1094.571 2297.884 1041.584 2284.979 1022.402 2308.957 990.915 2361.88 1094.571 2297.884"/><polygon class="cls-13" points="1008.942 2278.955 1009.844 2330.333 1021.561 2284.364 1025.998 2266.996 1008.942 2278.955"/><polygon class="cls-11" points="1318.106 2462.832 1274.841 2464.634 1204.536 2557.474 1331.627 2492.576 1318.106 2462.832"/></g><g id="col4"><polygon class="cls-14" points="762.245 2426.447 704.698 2457.618 714.289 2493.585 734.931 2542.151 762.245 2426.447"/><polygon class="cls-15" points="1289.263 2497.984 1274.841 2464.634 1204.536 2557.474 1264.927 2524.124 1289.263 2497.984"/><polygon class="cls-14" points="1094.334 2298.167 989.112 2362.781 878.686 2559.523 1094.334 2298.167"/><polygon class="cls-14" points="608.788 2317.949 600.396 2343.725 627.97 2310.156 608.788 2317.949"/><polygon class="cls-14" points="150.854 2378.104 160.44 2284.055 216.652 2242 150.854 2378.104"/><polygon class="cls-16" points="704.698 2457.618 624.373 2485.192 734.931 2542.151 704.698 2457.618"/><polygon class="cls-17" points="1274.841 2464.634 1264.927 2524.124 1204.536 2557.474 1274.841 2464.634"/><polygon class="cls-18" points="407.388 2559.523 624.373 2485.192 734.931 2542.151 407.388 2559.523"/><polygon class="cls-19" points="1289.263 2497.984 1437.986 2557.474 1264.927 2524.124 1289.263 2497.984"/><polygon class="cls-20" points="1289.263 2497.984 1299.178 2477.253 1436.609 2556.304 1289.263 2497.984"/><polygon class="cls-21" points="1274.841 2464.634 1299.178 2477.253 1289.263 2497.984 1274.841 2464.634"/><polygon class="cls-22" points="1318.106 2462.832 1299.178 2477.253 1274.841 2464.634 1318.106 2462.832"/><polygon class="cls-23" points="1264.927 2524.124 1442.493 2558.375 1204.536 2557.474 1264.927 2524.124"/><polygon class="cls-24" points="1080.149 2423.172 871.936 2567.389 1095.472 2296.983 1080.149 2423.172"/><polygon class="cls-17" points="1080.149 2423.172 1209.944 2461.93 871.936 2567.389 1080.149 2423.172"/><polygon class="cls-25" points="1127.019 2373.598 1080.149 2423.172 1095.472 2296.983 1127.019 2373.598"/><polygon class="cls-26" points="1127.019 2373.598 1209.944 2461.93 1080.149 2423.172 1127.019 2373.598"/><path class="cls-20" d="M1127.02,2373.5976s82.9542,88.3761,82.9245,88.3327l-66.7-98.3679Z"/><polygon class="cls-27" points="1028.772 2281.66 1009.844 2330.333 1020.66 2287.068 1028.772 2281.66"/><polygon class="cls-28" points="1020.66 2287.068 1028.772 2281.66 1026.068 2267.238 1020.66 2287.068"/><polygon class="cls-29" points="1028.772 2281.66 1041.391 2285.265 1009.844 2330.333 1028.772 2281.66"/><polygon class="cls-30" points="1026.068 2267.238 1028.772 2281.66 1031.476 2266.337 1026.068 2267.238"/><polygon class="cls-31" points="761.971 2522.321 734.931 2542.151 761.971 2426.777 761.971 2522.321"/><polygon class="cls-32" points="792.617 2460.128 761.971 2522.321 807.802 2558.324 792.617 2460.128"/><polygon class="cls-33" points="811.546 2561.079 761.971 2522.321 734.931 2542.151 811.546 2561.079"/><polygon class="cls-34" points="160.768 2537.644 210.343 2512.406 242.858 2559.523 160.768 2537.644"/><polygon class="cls-35" points="135.531 2522.321 101.844 2569.741 162.571 2571.895 160.768 2537.644 135.531 2522.321"/><polygon class="cls-36" points="162.571 2576.402 160.768 2537.644 255.411 2566.487 162.571 2576.402"/><polygon class="cls-22" points="209.456 2512.406 167.078 2515.11 160.768 2537.644 209.456 2512.406"/><polygon class="cls-23" points="135.531 2522.321 167.078 2515.11 160.768 2537.644 135.531 2522.321"/><polygon class="cls-32" points="154.459 2497.083 167.078 2515.11 135.531 2522.321 154.459 2497.083"/><polygon class="cls-21" points="210.343 2512.406 200.428 2532.236 160.768 2537.644 210.343 2512.406"/><polygon class="cls-37" points="242.858 2559.523 200.428 2532.236 160.768 2537.644 245.486 2563.526 242.858 2559.523"/><polygon class="cls-30" points="952.157 2270.843 933.228 2267.238 950.354 2260.928 952.157 2270.843"/><polygon class="cls-38" points="984.606 2269.041 952.157 2270.843 933.228 2300.588 984.606 2269.041"/><polygon class="cls-39" points="952.157 2270.843 933.228 2300.588 932.327 2269.041 933.228 2267.238 952.157 2270.843"/><polygon class="cls-40" points="445.596 2358.275 359.066 2437.594 579.898 2323.122 445.596 2358.275"/><polygon class="cls-41" points="491.565 2331.234 445.596 2358.275 579.898 2323.122 491.565 2331.234"/><polygon class="cls-42" points="511.395 2308.7 491.565 2331.234 582.602 2323.122 511.395 2308.7"/><polygon class="cls-43" points="423.062 2273.547 491.565 2331.234 445.596 2358.275 423.062 2273.547"/><polygon class="cls-44" points="423.062 2273.547 445.596 2358.275 359.066 2437.594 423.062 2273.547"/><polygon class="cls-33" points="216.652 2242 233.778 2310.503 150.854 2378.104 216.652 2242"/><polygon class="cls-14" points="320.308 2313.207 151.774 2378.104 150.854 2378.104 233.778 2310.503 320.308 2313.207"/><polygon class="cls-23" points="259.917 2300.588 319.407 2313.207 233.778 2310.503 259.917 2300.588"/><polygon class="cls-24" points="276.142 2288.87 259.917 2300.588 315.612 2312.538 276.142 2288.87"/><polygon class="cls-45" points="216.652 2242 259.917 2300.588 233.778 2310.503 216.652 2242"/><polygon class="cls-14" points="734.931 2542.151 812.447 2558.375 706.087 2559.276 734.931 2542.151"/><polygon class="cls-46" points="802.706 2525.371 807.802 2558.324 761.971 2522.321 802.706 2525.371"/><polygon class="cls-18" points="990.915 2361.88 1009.844 2330.333 1008.942 2278.955 995.422 2272.646 990.915 2361.88"/><polygon class="cls-14" points="762.245 2426.447 704.698 2457.618 714.289 2493.585 734.931 2542.151 762.245 2426.447"/><polygon class="cls-15" points="1289.263 2497.984 1274.841 2464.634 1204.536 2557.474 1264.927 2524.124 1289.263 2497.984"/><polygon class="cls-14" points="1094.334 2298.167 989.112 2362.781 878.686 2559.523 1094.334 2298.167"/><polygon class="cls-14" points="608.788 2317.949 600.396 2343.725 627.97 2310.156 608.788 2317.949"/><polygon class="cls-14" points="150.854 2378.104 160.44 2284.055 216.652 2242 150.854 2378.104"/><polygon class="cls-16" points="704.698 2457.618 624.373 2485.192 734.931 2542.151 704.698 2457.618"/><polygon class="cls-17" points="1274.841 2464.634 1264.927 2524.124 1204.536 2557.474 1274.841 2464.634"/><polygon class="cls-18" points="407.388 2559.523 624.373 2485.192 734.931 2542.151 407.388 2559.523"/><polygon class="cls-19" points="1289.263 2497.984 1437.986 2557.474 1264.927 2524.124 1289.263 2497.984"/><polygon class="cls-20" points="1289.263 2497.984 1299.178 2477.253 1436.609 2556.304 1289.263 2497.984"/><polygon class="cls-21" points="1274.841 2464.634 1299.178 2477.253 1289.263 2497.984 1274.841 2464.634"/><polygon class="cls-22" points="1318.106 2462.832 1299.178 2477.253 1274.841 2464.634 1318.106 2462.832"/><polygon class="cls-23" points="1264.927 2524.124 1442.493 2558.375 1204.536 2557.474 1264.927 2524.124"/><polygon class="cls-24" points="1080.149 2423.172 871.936 2567.389 1095.472 2296.983 1080.149 2423.172"/><polygon class="cls-17" points="1080.149 2423.172 1209.944 2461.93 871.936 2567.389 1080.149 2423.172"/><polygon class="cls-25" points="1127.019 2373.598 1080.149 2423.172 1095.472 2296.983 1127.019 2373.598"/><polygon class="cls-26" points="1127.019 2373.598 1209.944 2461.93 1080.149 2423.172 1127.019 2373.598"/><path class="cls-20" d="M1127.02,2373.5976s82.9542,88.3761,82.9245,88.3327l-66.7-98.3679Z"/><polygon class="cls-27" points="1028.772 2281.66 1009.844 2330.333 1020.66 2287.068 1028.772 2281.66"/><polygon class="cls-28" points="1020.66 2287.068 1028.772 2281.66 1026.068 2267.238 1020.66 2287.068"/><polygon class="cls-29" points="1028.772 2281.66 1041.391 2285.265 1009.844 2330.333 1028.772 2281.66"/><polygon class="cls-30" points="1026.068 2267.238 1028.772 2281.66 1031.476 2266.337 1026.068 2267.238"/><polygon class="cls-31" points="761.971 2522.321 734.931 2542.151 761.971 2426.777 761.971 2522.321"/><polygon class="cls-32" points="792.617 2460.128 761.971 2522.321 807.802 2558.324 792.617 2460.128"/><polygon class="cls-33" points="811.546 2561.079 761.971 2522.321 734.931 2542.151 811.546 2561.079"/><polygon class="cls-34" points="160.768 2537.644 210.343 2512.406 242.858 2559.523 160.768 2537.644"/><polygon class="cls-35" points="135.531 2522.321 101.844 2569.741 162.571 2571.895 160.768 2537.644 135.531 2522.321"/><polygon class="cls-36" points="162.571 2576.402 160.768 2537.644 255.411 2566.487 162.571 2576.402"/><polygon class="cls-22" points="209.456 2512.406 167.078 2515.11 160.768 2537.644 209.456 2512.406"/><polygon class="cls-23" points="135.531 2522.321 167.078 2515.11 160.768 2537.644 135.531 2522.321"/><polygon class="cls-32" points="154.459 2497.083 167.078 2515.11 135.531 2522.321 154.459 2497.083"/><polygon class="cls-21" points="210.343 2512.406 200.428 2532.236 160.768 2537.644 210.343 2512.406"/><polygon class="cls-37" points="242.858 2559.523 200.428 2532.236 160.768 2537.644 245.486 2563.526 242.858 2559.523"/><polygon class="cls-30" points="952.157 2270.843 933.228 2267.238 950.354 2260.928 952.157 2270.843"/><polygon class="cls-38" points="984.606 2269.041 952.157 2270.843 933.228 2300.588 984.606 2269.041"/><polygon class="cls-39" points="952.157 2270.843 933.228 2300.588 932.327 2269.041 933.228 2267.238 952.157 2270.843"/><polygon class="cls-40" points="445.596 2358.275 359.066 2437.594 579.898 2323.122 445.596 2358.275"/><polygon class="cls-41" points="491.565 2331.234 445.596 2358.275 579.898 2323.122 491.565 2331.234"/><polygon class="cls-42" points="511.395 2308.7 491.565 2331.234 582.602 2323.122 511.395 2308.7"/><polygon class="cls-43" points="423.062 2273.547 491.565 2331.234 445.596 2358.275 423.062 2273.547"/><polygon class="cls-44" points="423.062 2273.547 445.596 2358.275 359.066 2437.594 423.062 2273.547"/><polygon class="cls-33" points="216.652 2242 233.778 2310.503 150.854 2378.104 216.652 2242"/><polygon class="cls-14" points="320.308 2313.207 151.774 2378.104 150.854 2378.104 233.778 2310.503 320.308 2313.207"/><polygon class="cls-23" points="259.917 2300.588 319.407 2313.207 233.778 2310.503 259.917 2300.588"/><polygon class="cls-24" points="276.142 2288.87 259.917 2300.588 315.612 2312.538 276.142 2288.87"/><polygon class="cls-45" points="216.652 2242 259.917 2300.588 233.778 2310.503 216.652 2242"/><polygon class="cls-14" points="734.931 2542.151 812.447 2558.375 706.087 2559.276 734.931 2542.151"/><polygon class="cls-46" points="802.706 2525.371 807.802 2558.324 761.971 2522.321 802.706 2525.371"/><polygon class="cls-18" points="990.915 2361.88 1009.844 2330.333 1008.942 2278.955 995.422 2272.646 990.915 2361.88"/></g></g></g></svg>