<svg xmlns="http://www.w3.org/2000/svg" viewBox="0 0 1440 2560"><defs><style>.cls-1{fill:#414140;}.cls-2,.cls-3,.cls-37,.cls-38,.cls-39,.cls-4,.cls-40,.cls-41,.cls-42,.cls-5,.cls-6,.cls-7,.cls-8{fill:#292929;}.cls-2{opacity:0.7;}.cls-3{opacity:0.65;}.cls-4{opacity:0.66;}.cls-5{opacity:0.68;}.cls-14,.cls-6{opacity:0.77;}.cls-8{opacity:0.8;}.cls-10,.cls-11,.cls-43,.cls-44,.cls-45,.cls-9{fill:#b0b0b0;}.cls-10{opacity:0.43;}.cls-11,.cls-15{opacity:0.37;}.cls-12,.cls-13,.cls-14,.cls-15,.cls-16,.cls-17,.cls-18,.cls-19,.cls-20,.cls-21,.cls-22,.cls-23,.cls-24,.cls-25,.cls-26,.cls-27,.cls-28,.cls-29,.cls-30,.cls-31,.cls-32,.cls-33,.cls-34,.cls-35,.cls-36,.cls-46,.cls-47,.cls-48,.cls-49,.cls-50,.cls-51,.cls-52,.cls-53,.cls-54{fill:#3a3a3a;}.cls-13{opacity:0.44;}.cls-16{opacity:0.46;}.cls-17{opacity:0.21;}.cls-18{opacity:0.07;}.cls-19{opacity:0.36;}.cls-20{opacity:0.11;}.cls-21,.cls-42,.cls-45{opacity:0.5;}.cls-22{opacity:0.23;}.cls-23{opacity:0.58;}.cls-24{opacity:0.09;}.cls-25{opacity:0.28;}.cls-26{opacity:0.14;}.cls-27{opacity:0.24;}.cls-28{opacity:0.22;}.cls-29{opacity:0.3;}.cls-30{opacity:0.15;}.cls-31{opacity:0.4;}.cls-32{opacity:0;}.cls-33{opacity:0.87;}.cls-34{opacity:0.74;}.cls-35{opacity:0.2;}.cls-36{opacity:0.81;}.cls-37{opacity:0.63;}.cls-38,.cls-52{opacity:0.6;}.cls-39{opacity:0.32;}.cls-40{opacity:0.75;}.cls-41{opacity:0.82;}.cls-43{opacity:0.62;}.cls-44{opacity:0.61;}.cls-46{opacity:0.45;}.cls-47{opacity:0.19;}.cls-48{opacity:0.12;}.cls-49{opacity:0.29;}.cls-50{opacity:0.39;}.cls-51{opacity:0.1;}.cls-53{opacity:0.34;}.cls-54{opacity:0.16;}</style></defs><g id="Bottom"><g id="col1"><path class="cls-1" d="M1276.86,7.6056,1091.9773,255.0021l78.4753,110.3973L1129.22,483.7773l56.5172,185.1838-17.9446,42.2613,23.9416,14.631s-5.4841,65.8086-9.4094,112.9128c-2.1879,26.2542-1.2313,2.8048-1.2313,2.8048l-47.916,86.3181c2.66,3.99,21.3526,24.8939,20.1995,28.1414-13.4521,37.8856-29.4194,82.8548-40.1181,112.9857l41.2328,159.6106,68.6858,47.2623,112.2062,77.766,6.6505,123.6982,105.0769,134.3389L1465.7322-21.6563Z"/><path class="cls-1" d="M1280.1109.8891l-190.2,254.113,78.4752,110.3973-41.2327,118.3779,56.5171,185.1838-17.9446,42.2613,23.9416,14.631s-6.9419,66.8405-9.5567,114.0357c-.0108.1952-1,1-1,1l-48,87c2.66,3.99,21.3527,24.8939,20.2,28.1414-13.4521,37.8856-29.4195,82.8548-40.1181,112.9857l13.203,51.1084-6.5526,32.6871v5.32l19.9514,10.6407,14.6309,59.854,69.6858,45.2623,111.2063,79.766,6.65,123.6982,105.077,134.3389L1463.6658-21.6563Z"/></g><g id="col2"><path class="cls-2" d="M1190.9977,692.6011c-20.8381-68.7212-43.0062-140.1026-63.8442-208.8238l41.2327-118.3779,156.95-396.3663L1463.5075-7.7734l.1583,482.24Z"/><polygon class="cls-3" points="1283.111 -2.111 1089.911 255.002 1168.386 365.399 1451.695 147.265 1451.695 -0.375 1283.111 -2.111"/><polygon class="cls-4" points="1313.366 1340.354 1333.317 1353.655 1339.968 1477.353 1442.384 1611.692 1463.666 1618.343 1442.384 1445.431 1442.384 1099.608 1313.366 1340.354"/><polygon class="cls-5" points="1111.192 1069.016 1306.715 873.493 1558.102 817.629 1337.307 1420.159 1333.317 1353.655 1152.425 1228.627 1137.794 1168.773 1143.115 1152.812 1121.833 1136.851 1124.493 1119.56 1120.503 1106.259 1111.192 1069.016"/><polygon class="cls-6" points="1179.387 842.13 1176.367 885.464 1151.111 955.889 1455.685 547.622 1179.387 842.13"/><polygon class="cls-7" points="1187.895 714.869 1442.384 154.434 1180.854 655.154 1183.017 668.66 1165.726 711.222 1187.895 714.869"/><polygon class="cls-8" points="1112.522 1069.016 1120.828 1104.97 1512.879 619.446 1429.084 562.252 1257.502 813.639 1144.445 1010.492 1111.192 1069.016 1111.192 1069.016 1112.522 1069.016"/><polygon class="cls-7" points="1439.724 905.415 1294.745 860.192 1329.327 796.348 1458.345 419.933 1530.17 680.63 1439.724 905.415"/><polygon class="cls-7" points="1390.511 248.352 1373.22 185.837 1442.384 -62.889 1558.102 35.537 1390.511 248.352"/></g><g id="Layer_12" data-name="Layer 12"><polygon class="cls-9" points="1338.111 1476.889 1446.111 1617.889 1503.111 1323.889 1338.111 1476.889"/><polygon class="cls-9" points="1151.111 1229.889 1217.599 1277.84 1333.111 1356.889 1449.035 983.891 1151.111 1229.889"/><polygon class="cls-9" points="1089.911 255.002 1240.805 182.512 1168.386 365.399 1089.911 255.002"/><polygon class="cls-9" points="1127.153 483.777 1307.37 412.929 1179.027 658.019 1127.153 483.777"/><polygon class="cls-9" points="1203.544 680.406 1189.668 725.853 1165.726 711.222 1203.544 680.406"/><polygon class="cls-9" points="1151.111 955.889 1131.111 927.889 1176.367 886.794 1151.111 955.889"/><polygon class="cls-9" points="1111.111 1068.889 1121.833 1057.045 1153.755 1050.395 1120.503 1106.259 1111.111 1068.889"/><polygon class="cls-9" points="1331.987 893.444 1442.384 910.736 1530.17 768.416 1492.928 680.63 1441.054 825.61 1294.745 860.192 1331.987 893.444"/><polygon class="cls-9" points="1390.511 248.352 1456.492 293.648 1503.568 91.401 1373.22 185.837 1390.511 248.352"/><polygon class="cls-9" points="1117.111 1158.889 1117.843 1152.812 1187.007 1129.5 1137.111 1168.889 1117.111 1158.889"/><polygon class="cls-10" points="1152.111 1228.889 1137.794 1170.103 1164.396 1148.821 1228.24 1166.113 1152.111 1228.889"/><polygon class="cls-11" points="1121.833 1136.851 1180.357 1131.53 1117.843 1152.812 1121.833 1136.851"/><polygon class="cls-9" points="1338.111 1476.889 1337.111 1428.889 1447.111 1380.889 1368.111 1491.889 1338.111 1476.889"/></g><g id="Layer_13" data-name="Layer 13"><polygon class="cls-12" points="1294.745 860.192 1329.327 796.348 1369.23 806.989 1442.384 825.61 1294.745 860.192"/><polygon class="cls-13" points="1374.111 1444.889 1337.111 1428.889 1443.111 1380.889 1436.111 1386.889 1374.111 1444.889"/><polygon class="cls-12" points="1152.425 1228.627 1224.111 1111.889 1442.384 989.378 1152.425 1228.627"/><polygon class="cls-12" points="1174.372 689.941 1202.968 680.63 1165.726 711.222 1174.372 689.941"/><polygon class="cls-12" points="1127.153 483.777 1306.715 413.283 1140.454 446.535 1127.153 483.777"/><polygon class="cls-12" points="1240.211 183.177 1136.769 192.525 1089.911 255.002 1240.211 183.177"/><polygon class="cls-14" points="1329.327 796.348 1359.919 707.232 1442.384 825.61 1329.327 796.348"/><polygon class="cls-15" points="1337.111 1428.889 1391.111 1429.889 1441.111 1380.889 1337.111 1428.889"/><polygon class="cls-16" points="1442.384 466.5 1359.919 707.232 1442.384 825.61 1442.384 466.5"/><polygon class="cls-17" points="1374.111 1444.889 1440.111 1611.692 1458.111 1365.889 1374.111 1444.889"/><polygon class="cls-18" points="1374.111 1444.889 1351.111 1455.889 1438.813 1608.361 1374.111 1444.889"/><polygon class="cls-19" points="1337.111 1428.889 1351.111 1455.889 1374.111 1444.889 1337.111 1428.889"/><polygon class="cls-20" points="1338.111 1476.889 1351.111 1455.889 1337.111 1428.889 1338.111 1476.889"/><polygon class="cls-21" points="1391.55 1429.541 1439.22 1611.199 1457.111 1364.889 1391.55 1429.541"/><polygon class="cls-22" points="1291.111 1212.889 1451.111 981.889 1151.111 1229.889 1291.111 1212.889"/><polygon class="cls-23" points="1291.111 1212.889 1335.111 1353.889 1451.111 981.889 1291.111 1212.889"/><polygon class="cls-24" points="1236.111 1264.889 1291.111 1212.889 1151.111 1229.889 1236.111 1264.889"/><polygon class="cls-25" points="1236.111 1264.889 1337.111 1358.889 1291.111 1212.889 1236.111 1264.889"/><path class="cls-18" d="M1236.1109,1264.8891l98,91s1.0483,3.033,1,3l-110.1335-76Z"/><polygon class="cls-15" points="1134.111 1155.889 1186.128 1129.797 1135.111 1146.889 1134.111 1155.889"/><polygon class="cls-26" points="1135.111 1146.889 1134.111 1155.889 1118.111 1152.889 1135.111 1146.889"/><polygon class="cls-27" points="1134.111 1155.889 1137.111 1168.889 1187.111 1129.889 1134.111 1155.889"/><polygon class="cls-28" points="1118.111 1152.889 1134.111 1155.889 1117.111 1158.889 1118.111 1152.889"/><polygon class="cls-29" points="1343.111 870.889 1441.054 825.61 1295.111 859.889 1343.111 870.889"/><polygon class="cls-30" points="1332.111 893.889 1343.111 870.889 1441.054 910.736 1332.111 893.889"/><polygon class="cls-31" points="1446.111 912.889 1343.111 870.889 1441.111 825.889 1446.111 912.889"/><polygon class="cls-32" points="1418.111 192.889 1390.111 247.889 1442.384 283.963 1418.111 192.889"/><polygon class="cls-33" points="1401.111 164.889 1453.721 127.515 1456.111 194.889 1418.111 192.889 1401.111 164.889"/><polygon class="cls-34" points="1461.111 194.889 1418.111 192.889 1450.111 297.889 1461.111 194.889"/><polygon class="cls-20" points="1390.111 246.905 1393.111 199.889 1418.111 192.889 1390.111 246.905"/><polygon class="cls-21" points="1401.111 164.889 1393.111 199.889 1418.111 192.889 1401.111 164.889"/><polygon class="cls-35" points="1373.111 185.889 1393.111 199.889 1401.111 164.889 1373.111 185.889"/><polygon class="cls-19" points="1390.111 247.889 1412.111 236.889 1418.111 192.889 1390.111 247.889"/><polygon class="cls-36" points="1442.384 283.963 1412.111 236.889 1418.111 192.889 1446.825 286.878 1442.384 283.963"/></g></g><g id="Right"><g id="col1-2" data-name="col1"><polygon class="cls-1" points="1442.384 2079.883 1406.111 2108.889 1386.111 2094.889 1325.111 2133.889 1308.111 2165.889 1156.415 2266.096 1193.658 2397.774 1117.843 2496.201 1112.522 2554.725 988.824 2453.638 879.757 2529.453 762.709 2485.56 560.536 2540.094 366.343 2518.813 186.781 2446.988 31.161 2481.57 8.111 2519.889 0.111 2562.889 12.539 2579.997 633.691 2603.938 1463.666 2587.977 1450.365 2087.864 1442.384 2079.883"/></g><g id="col2-2" data-name="col2"><polygon class="cls-37" points="0.569 2566.696 187.111 2446.889 314.111 2497.889 237.111 2562.889 33.821 2601.278 0.569 2566.696"/><polygon class="cls-2" points="572.507 2572.016 555.917 2540.489 762.709 2485.56 879.757 2529.453 848.111 2589.889 799.952 2623.889 572.507 2572.016"/><polygon class="cls-38" points="1113.853 2565.366 1117.843 2496.201 1193.658 2397.774 1449.111 2072.889 1474.307 2627.88 1185.677 2619.899 1113.853 2565.366"/><polygon class="cls-39" points="187.111 2446.889 -13.889 2611.889 0.111 2562.889 187.111 2446.889"/><polygon class="cls-40" points="989.111 2453.889 975.111 2508.889 858.111 2665.889 713.111 2646.889 989.111 2453.889"/><polygon class="cls-41" points="1156.111 2265.889 1194.111 2397.889 1188.111 2404.889 1440.111 2588.889 1505.111 2520.889 1163.066 2265.889 1156.111 2265.889"/><polygon class="cls-7" points="339.111 2507.889 366.111 2518.889 430.111 2525.889 283.111 2576.889 339.111 2507.889"/><line class="cls-7" x1="276.2925" y1="2482.7923" x2="187.1109" y2="2446.8891"/><polygon class="cls-7" points="212.111 2508.889 114.111 2569.889 187.111 2446.889 212.111 2508.889 212.111 2508.889"/><polyline class="cls-7" points="763.111 2485.889 578.079 2601.795 650.111 2670.889 802.111 2544.889 763.111 2485.889"/><line class="cls-7" x1="763.1109" y1="2485.8891" x2="802.1109" y2="2544.8891"/><polyline class="cls-7" points="880.111 2529.889 831.111 2603.889 989.111 2453.889 880.111 2529.889"/><polyline class="cls-7" points="1182.111 2412.889 1156.111 2544.889 1107.111 2665.889 1117.111 2502.889 1182.111 2412.889"/><polygon class="cls-42" points="1235.111 2243.889 1443.111 2606.889 1297.111 2173.889 1178.111 2251.889 1235.111 2243.889"/><polygon class="cls-7" points="1247.111 2220.889 1236.111 2341.889 1480.111 2502.889 1482.111 2492.889 1254.111 2259.889 1253.111 2229.889 1247.111 2220.889"/><polyline class="cls-37" points="1288.111 2274.889 1505.111 2312.889 1385.111 2094.889 1288.111 2274.889"/></g><g id="col3"><polygon class="cls-43" points="1156.415 2266.096 1193.658 2397.774 1238.111 2343.889 1247.111 2253.889 1267.111 2193.889 1156.415 2266.096"/><polygon class="cls-9" points="1156.415 2266.096 1197.111 2312.889 1268.111 2191.889 1156.415 2266.096"/><polygon class="cls-9" points="960.111 2473.889 974.111 2510.889 1085.111 2532.889 988.824 2453.638 960.111 2473.889"/><polygon class="cls-9" points="349.111 2506.889 387.111 2502.889 430.111 2525.889 357.111 2535.889 339.111 2507.889 349.111 2506.889"/><polygon class="cls-9" points="763.111 2485.889 880.111 2529.889 802.111 2544.889 763.111 2485.889"/><polygon class="cls-9" points="314.111 2497.889 212.111 2508.889 187.111 2446.889 187.111 2446.889 260.111 2466.889 314.111 2497.889"/><polygon class="cls-9" points="1188.111 2404.889 1123.111 2450.889 1116.891 2503.054 1146.111 2479.889 1188.111 2404.889"/><polygon class="cls-44" points="1192.111 2390.889 1197.111 2297.889 1156.111 2265.889 1192.111 2390.889"/><polygon class="cls-9" points="1325.111 2133.889 1288.111 2277.889 1375.111 2193.889 1386.111 2094.889 1325.111 2133.889"/><polygon class="cls-45" points="1268.111 2191.889 1197.111 2312.889 1238.111 2341.889 1247.111 2253.889 1268.111 2191.889"/></g><g id="col4"><polygon class="cls-28" points="1288.111 2277.889 1340.111 2158.889 1375.111 2193.889 1288.111 2277.889"/><polygon class="cls-46" points="1386.111 2094.889 1375.111 2193.889 1340.111 2158.889 1386.111 2094.889"/><polygon class="cls-47" points="1340.111 2158.889 1325.111 2133.889 1385.111 2094.889 1340.111 2158.889"/><polygon class="cls-47" points="1188.111 2404.889 1129.111 2468.889 1146.111 2479.889 1188.111 2404.889"/><polygon class="cls-21" points="1129.111 2468.889 1117.111 2502.889 1146.111 2479.889 1129.111 2468.889"/><polygon class="cls-29" points="1123.111 2450.889 1129.111 2468.889 1117.111 2502.889 1123.111 2450.889"/><polyline class="cls-48" points="1085.111 2532.889 989.111 2479.889 974.111 2510.889 1085.111 2532.889"/><polygon class="cls-20" points="989.111 2453.889 989.111 2479.889 960.111 2473.889 989.111 2453.889"/><polygon class="cls-49" points="960.111 2473.889 974.111 2510.889 989.111 2479.889 960.111 2473.889"/><polygon class="cls-26" points="880.111 2529.889 807.111 2523.889 826.253 2509.389 880.111 2529.889"/><polygon class="cls-50" points="802.111 2544.889 880.111 2529.889 807.111 2523.889 802.111 2544.889"/><polygon class="cls-28" points="807.111 2523.889 802.111 2544.889 763.111 2485.889 807.111 2523.889"/><polygon class="cls-51" points="378.111 2518.889 429.111 2525.889 387.111 2502.889 378.111 2518.889"/><polygon class="cls-52" points="378.111 2518.889 429.232 2525.768 357.111 2535.889 378.111 2518.889"/><polygon class="cls-53" points="339.111 2507.889 378.111 2518.889 357.111 2535.889 339.111 2507.889"/><polygon class="cls-54" points="187.111 2446.889 260.111 2466.889 250.111 2487.889 187.111 2446.889"/><polygon class="cls-20" points="250.111 2487.889 314.111 2497.889 212.111 2508.889 250.111 2487.889"/><polygon class="cls-50" points="250.111 2487.889 187.111 2446.889 212.111 2508.889 250.111 2487.889"/></g></g></svg>