<svg xmlns="http://www.w3.org/2000/svg" viewBox="0 0 2560 1440"><defs><style>.cls-1{fill:#414140;}.cls-2,.cls-3,.cls-37,.cls-38,.cls-39,.cls-4,.cls-40,.cls-41,.cls-42,.cls-5,.cls-6,.cls-7,.cls-8{fill:#292929;}.cls-2{opacity:0.7;}.cls-3{opacity:0.65;}.cls-4{opacity:0.66;}.cls-5{opacity:0.68;}.cls-14,.cls-6{opacity:0.77;}.cls-8{opacity:0.8;}.cls-10,.cls-11,.cls-43,.cls-44,.cls-45,.cls-9{fill:#b0b0b0;}.cls-10{opacity:0.43;}.cls-11,.cls-15{opacity:0.37;}.cls-12,.cls-13,.cls-14,.cls-15,.cls-16,.cls-17,.cls-18,.cls-19,.cls-20,.cls-21,.cls-22,.cls-23,.cls-24,.cls-25,.cls-26,.cls-27,.cls-28,.cls-29,.cls-30,.cls-31,.cls-32,.cls-33,.cls-34,.cls-35,.cls-36,.cls-46,.cls-47,.cls-48,.cls-49,.cls-50,.cls-51,.cls-52,.cls-53,.cls-54{fill:#3a3a3a;}.cls-13{opacity:0.44;}.cls-16{opacity:0.46;}.cls-17{opacity:0.21;}.cls-18{opacity:0.07;}.cls-19{opacity:0.36;}.cls-20{opacity:0.11;}.cls-21,.cls-42,.cls-45{opacity:0.5;}.cls-22{opacity:0.23;}.cls-23{opacity:0.58;}.cls-24{opacity:0.09;}.cls-25{opacity:0.28;}.cls-26{opacity:0.14;}.cls-27{opacity:0.24;}.cls-28{opacity:0.22;}.cls-29{opacity:0.3;}.cls-30{opacity:0.15;}.cls-31{opacity:0.4;}.cls-32{opacity:0;}.cls-33{opacity:0.87;}.cls-34{opacity:0.74;}.cls-35{opacity:0.2;}.cls-36{opacity:0.81;}.cls-37{opacity:0.63;}.cls-38,.cls-52{opacity:0.6;}.cls-39{opacity:0.32;}.cls-40{opacity:0.75;}.cls-41{opacity:0.82;}.cls-43{opacity:0.62;}.cls-44{opacity:0.61;}.cls-46{opacity:0.45;}.cls-47{opacity:0.19;}.cls-48{opacity:0.12;}.cls-49{opacity:0.29;}.cls-50{opacity:0.39;}.cls-51{opacity:0.1;}.cls-53{opacity:0.34;}.cls-54{opacity:0.16;}</style></defs><g id="Bottom"><g id="col1"><path class="cls-1" d="M4.7166,1276.7487,252.113,1091.8664,362.51,1170.3416l118.3779-41.2327,185.1839,56.5171,42.2612-17.9446,14.631,23.9416,112.9128-9.4094c26.2542-2.1878,2.8049-1.2313,2.8049-1.2313L925,1133.0664c3.99,2.66,24.894,21.3526,28.1414,20.2l112.9857-40.1181,159.6106,41.2328L1273,1223.0664l77.766,112.2062,123.6982,6.65L1608.8032,1447-24.5454,1465.6212Z"/><path class="cls-1" d="M-2,1280l254.113-190.2L362.51,1168.2753l118.3779-41.2328L666.0721,1183.56l42.2612-17.9446,14.631,23.9416S789.8048,1182.6147,837,1180c.1952-.0108,1-1,1-1l87-48c3.99,2.66,24.894,21.3526,28.1414,20.2l112.9857-40.1181,51.1084,13.203,32.6872-6.5526h5.32l10.6407,19.9513,59.854,14.631L1271,1222l79.766,111.2062,123.6982,6.65,134.339,105.0769L-24.5454,1463.5549Z"/></g><g id="col2"><path class="cls-2" d="M689.7121,1190.8868c-68.7212-20.8381-140.1027-43.0062-208.8239-63.8443L362.51,1168.2753l-396.3663,156.95,23.1936,138.1709,482.24.1583Z"/><polygon class="cls-3" points="-5 1283 252.113 1089.8 362.51 1168.275 144.376 1451.584 -3.264 1451.584 -5 1283"/><polygon class="cls-4" points="1337.465 1313.255 1350.766 1333.206 1474.464 1339.857 1608.803 1442.273 1615.454 1463.555 1442.542 1442.273 1096.719 1442.273 1337.465 1313.255"/><polygon class="cls-5" points="1066.127 1111.081 870.604 1306.604 814.74 1557.991 1417.27 1337.196 1350.766 1333.206 1225.738 1152.314 1165.884 1137.683 1149.923 1143.004 1133.962 1121.722 1116.67 1124.382 1103.37 1120.392 1066.127 1111.081"/><polygon class="cls-6" points="839.241 1179.276 882.575 1176.256 953 1151 544.732 1455.574 839.241 1179.276"/><polygon class="cls-7" points="711.98 1187.784 151.545 1442.273 652.265 1180.743 665.77 1182.906 708.333 1165.615 711.98 1187.784"/><polygon class="cls-8" points="1066.127 1112.412 1102.081 1120.717 616.557 1512.768 559.363 1428.973 810.75 1257.391 1007.603 1144.334 1066.127 1111.081 1066.127 1111.081 1066.127 1112.412"/><polygon class="cls-7" points="902.526 1439.613 857.303 1294.634 793.459 1329.216 417.044 1458.235 677.741 1530.059 902.526 1439.613"/><polygon class="cls-7" points="245.463 1390.4 182.948 1373.109 -65.778 1442.273 32.648 1557.991 245.463 1390.4"/></g><g id="Layer_12" data-name="Layer 12"><polygon class="cls-9" points="1474 1338 1615 1446 1321 1503 1474 1338"/><polygon class="cls-9" points="1227 1151 1274.951 1217.489 1354 1333 981.001 1448.924 1227 1151"/><polygon class="cls-9" points="252.113 1089.8 179.623 1240.694 362.51 1168.275 252.113 1089.8"/><polygon class="cls-9" points="480.888 1127.043 410.04 1307.259 655.13 1178.916 480.888 1127.043"/><polygon class="cls-9" points="677.517 1203.433 722.964 1189.557 708.333 1165.615 677.517 1203.433"/><polygon class="cls-9" points="953 1151 925 1131 883.905 1176.256 953 1151"/><polygon class="cls-9" points="1066 1111 1054.156 1121.722 1047.506 1153.644 1103.37 1120.392 1066 1111"/><polygon class="cls-9" points="890.555 1331.876 907.847 1442.273 765.527 1530.059 677.741 1492.817 822.721 1440.943 857.303 1294.634 890.555 1331.876"/><polygon class="cls-9" points="245.463 1390.4 290.759 1456.382 88.512 1503.458 182.948 1373.109 245.463 1390.4"/><polygon class="cls-9" points="1156 1117 1149.923 1117.732 1126.611 1186.896 1166 1137 1156 1117"/><polygon class="cls-10" points="1226 1152 1167.214 1137.683 1145.932 1164.285 1163.224 1228.129 1226 1152"/><polygon class="cls-11" points="1133.962 1121.722 1128.641 1180.246 1149.923 1117.732 1133.962 1121.722"/><polygon class="cls-9" points="1474 1338 1426 1337 1378 1447 1489 1368 1474 1338"/></g><g id="Layer_13" data-name="Layer 13"><polygon class="cls-12" points="857.303 1294.634 793.459 1329.216 804.1 1369.119 822.721 1442.273 857.303 1294.634"/><polygon class="cls-13" points="1442 1374 1426 1337 1378 1443 1384 1436 1442 1374"/><polygon class="cls-12" points="1225.738 1152.314 1109 1224 986.489 1442.273 1225.738 1152.314"/><polygon class="cls-12" points="687.052 1174.261 677.741 1202.858 708.333 1165.615 687.052 1174.261"/><polygon class="cls-12" points="480.888 1127.043 410.394 1306.604 443.646 1140.343 480.888 1127.043"/><polygon class="cls-12" points="180.288 1240.1 189.636 1136.658 252.113 1089.8 180.288 1240.1"/><polygon class="cls-14" points="793.459 1329.216 704.343 1359.808 822.721 1442.273 793.459 1329.216"/><polygon class="cls-15" points="1426 1337 1427 1391 1378 1441 1426 1337"/><polygon class="cls-16" points="463.611 1442.273 704.343 1359.808 822.721 1442.273 463.611 1442.273"/><polygon class="cls-17" points="1442 1374 1608.803 1440 1363 1458 1442 1374"/><polygon class="cls-18" points="1442 1374 1453 1351 1605.472 1438.702 1442 1374"/><polygon class="cls-19" points="1426 1337 1453 1351 1442 1374 1426 1337"/><polygon class="cls-20" points="1474 1338 1453 1351 1426 1337 1474 1338"/><polygon class="cls-21" points="1426.652 1391.439 1608.309 1439.109 1362 1457 1426.652 1391.439"/><polygon class="cls-22" points="1210 1291 979 1451 1227 1151 1210 1291"/><polygon class="cls-23" points="1210 1291 1351 1335 979 1451 1210 1291"/><polygon class="cls-24" points="1262 1236 1210 1291 1227 1151 1262 1236"/><polygon class="cls-25" points="1262 1236 1356 1337 1210 1291 1262 1236"/><path class="cls-18" d="M1262,1236l91,98s3.033,1.0482,3,1l-76-110.1335Z"/><polygon class="cls-15" points="1153 1134 1126.908 1186.017 1144 1135 1153 1134"/><polygon class="cls-26" points="1144 1135 1153 1134 1150 1118 1144 1135"/><polygon class="cls-27" points="1153 1134 1166 1137 1127 1187 1153 1134"/><polygon class="cls-28" points="1150 1118 1153 1134 1156 1117 1150 1118"/><polygon class="cls-29" points="868 1343 822.721 1440.943 857 1295 868 1343"/><polygon class="cls-30" points="891 1332 868 1343 907.847 1440.943 891 1332"/><polygon class="cls-31" points="910 1446 868 1343 823 1441 910 1446"/><polygon class="cls-32" points="190 1418 245 1390 281.074 1442.273 190 1418"/><polygon class="cls-33" points="162 1401 124.626 1453.61 192 1456 190 1418 162 1401"/><polygon class="cls-34" points="192 1461 190 1418 295 1450 192 1461"/><polygon class="cls-20" points="244.016 1390 197 1393 190 1418 244.016 1390"/><polygon class="cls-21" points="162 1401 197 1393 190 1418 162 1401"/><polygon class="cls-35" points="183 1373 197 1393 162 1401 183 1373"/><polygon class="cls-19" points="245 1390 234 1412 190 1418 245 1390"/><polygon class="cls-36" points="281.074 1442.273 234 1412 190 1418 283.989 1446.714 281.074 1442.273"/></g></g><g id="Right"><g id="col1-2" data-name="col1"><polygon class="cls-1" points="2076.994 1442.273 2106 1406 2092 1386 2131 1325 2163 1308 2263.207 1156.304 2394.885 1193.547 2493.312 1117.732 2551.836 1112.412 2450.749 988.713 2526.564 879.646 2482.671 762.598 2537.205 560.425 2515.923 366.232 2444.099 186.67 2478.681 31.05 2517 8 2560 0 2577.108 12.428 2601.049 633.58 2585.088 1463.555 2084.975 1450.254 2076.994 1442.273"/></g><g id="col2-2" data-name="col2"><polygon class="cls-37" points="2563.807 0.458 2444 187 2495 314 2560 237 2598.389 33.71 2563.807 0.458"/><polygon class="cls-2" points="2569.127 572.396 2537.6 555.806 2482.671 762.598 2526.564 879.646 2587 848 2621 799.841 2569.127 572.396"/><polygon class="cls-38" points="2562.477 1113.742 2493.312 1117.732 2394.885 1193.547 2070 1449 2624.991 1474.196 2617.01 1185.566 2562.477 1113.742"/><polygon class="cls-39" points="2444 187 2609 -14 2560 0 2444 187"/><polygon class="cls-40" points="2451 989 2506 975 2663 858 2644 713 2451 989"/><polygon class="cls-41" points="2263 1156 2395 1194 2402 1188 2586 1440 2518 1505 2263 1162.955 2263 1156"/><polygon class="cls-7" points="2505 339 2516 366 2523 430 2574 283 2505 339"/><line class="cls-7" x1="2479.9033" y1="276.1815" x2="2444" y2="187"/><polygon class="cls-7" points="2506 212 2567 114 2444 187 2506 212 2506 212"/><polyline class="cls-7" points="2483 763 2598.906 577.968 2668 650 2542 802 2483 763"/><line class="cls-7" x1="2483" y1="763" x2="2542" y2="802"/><polyline class="cls-7" points="2527 880 2601 831 2451 989 2527 880"/><polyline class="cls-7" points="2410 1182 2542 1156 2663 1107 2500 1117 2410 1182"/><polygon class="cls-42" points="2241 1235 2604 1443 2171 1297 2249 1178 2241 1235"/><polygon class="cls-7" points="2218 1247 2339 1236 2500 1480 2490 1482 2257 1254 2227 1253 2218 1247"/><polyline class="cls-37" points="2272 1288 2310 1505 2092 1385 2272 1288"/></g><g id="col3"><polygon class="cls-43" points="2263.207 1156.304 2394.885 1193.547 2341 1238 2251 1247 2191 1267 2263.207 1156.304"/><polygon class="cls-9" points="2263.207 1156.304 2310 1197 2189 1268 2263.207 1156.304"/><polygon class="cls-9" points="2471 960 2508 974 2530 1085 2450.749 988.713 2471 960"/><polygon class="cls-9" points="2504 349 2500 387 2523 430 2533 357 2505 339 2504 349"/><polygon class="cls-9" points="2483 763 2527 880 2542 802 2483 763"/><polygon class="cls-9" points="2495 314 2506 212 2444 187 2444 187 2464 260 2495 314"/><polygon class="cls-9" points="2402 1188 2448 1123 2500.165 1116.78 2477 1146 2402 1188"/><polygon class="cls-44" points="2388 1192 2295 1197 2263 1156 2388 1192"/><polygon class="cls-9" points="2131 1325 2275 1288 2191 1375 2092 1386 2131 1325"/><polygon class="cls-45" points="2189 1268 2310 1197 2339 1238 2251 1247 2189 1268"/></g><g id="col4"><polygon class="cls-28" points="2275 1288 2156 1340 2191 1375 2275 1288"/><polygon class="cls-46" points="2092 1386 2191 1375 2156 1340 2092 1386"/><polygon class="cls-47" points="2156 1340 2131 1325 2092 1385 2156 1340"/><polygon class="cls-47" points="2402 1188 2466 1129 2477 1146 2402 1188"/><polygon class="cls-21" points="2466 1129 2500 1117 2477 1146 2466 1129"/><polygon class="cls-29" points="2448 1123 2466 1129 2500 1117 2448 1123"/><polyline class="cls-48" points="2530 1085 2477 989 2508 974 2530 1085"/><polygon class="cls-20" points="2451 989 2477 989 2471 960 2451 989"/><polygon class="cls-49" points="2471 960 2508 974 2477 989 2471 960"/><polygon class="cls-26" points="2527 880 2521 807 2506.5 826.142 2527 880"/><polygon class="cls-50" points="2542 802 2527 880 2521 807 2542 802"/><polygon class="cls-28" points="2521 807 2542 802 2483 763 2521 807"/><polygon class="cls-51" points="2516 378 2523 429 2500 387 2516 378"/><polygon class="cls-52" points="2516 378 2522.879 429.121 2533 357 2516 378"/><polygon class="cls-53" points="2505 339 2516 378 2533 357 2505 339"/><polygon class="cls-54" points="2444 187 2464 260 2485 250 2444 187"/><polygon class="cls-20" points="2485 250 2495 314 2506 212 2485 250"/><polygon class="cls-50" points="2485 250 2444 187 2506 212 2485 250"/></g></g></svg>