<svg xmlns="http://www.w3.org/2000/svg" viewBox="0 0 2320.6029 1853.137"><defs><style>.cls-1{fill:#c40e35;}.cls-2{fill:#414140;}.cls-3,.cls-4,.cls-5,.cls-6,.cls-7,.cls-8,.cls-9{fill:#f1c13e;}.cls-3{opacity:0.3;}.cls-4{opacity:0.5;}.cls-5{opacity:0.6;}.cls-6{opacity:0.7;}.cls-7{opacity:0.8;}.cls-8{opacity:0.66;}.cls-9{opacity:0.55;}</style></defs><g id="Layer_3" data-name="Layer 3"><polygon class="cls-1" points="38.852 427.882 691.844 26 1620.451 26 2281.653 425.662 1161.747 1811.818 38.852 427.882"/><path class="cls-2" d="M1680,497l629.5,380.5-1081,1338-1084-1336L766,497h914m14.4946-52H751.28l-12.5354,7.715-621.5,382.5L66.7962,866.2633l37.3238,46,1084,1336,40.4663,49.8736,40.3621-49.9578,1081-1338,37.451-46.3545-51-30.8267-629.5-380.5L1694.4946,445Z" transform="translate(-66.7962 -445)"/></g><g id="RED"><polygon class="cls-3" points="1613.204 52 2243.204 432 2227.204 452 2155.204 452 1613.204 52"/><path class="cls-4" d="M2034,887l116,15,72-5L1680,497Z" transform="translate(-66.7962 -445)"/><path class="cls-5" d="M1680,497l354,390-126,25-150-15q-52-200-104-400Z" transform="translate(-66.7962 -445)"/><path class="cls-5" d="M1758,897,1318,497h336Q1706,697,1758,897Z" transform="translate(-66.7962 -445)"/><path class="cls-6" d="M1318,497q44.5,202.5,89,405l148,14,203-19Z" transform="translate(-66.7962 -445)"/><path class="cls-7" d="M1318,497,1033,902l194,10,180-10Q1362.5,699.5,1318,497Z" transform="translate(-66.7962 -445)"/><path class="cls-8" d="M928,497l105,405,285-405Z" transform="translate(-66.7962 -445)"/><path class="cls-6" d="M928,497,677,897l179,9,177-4Z" transform="translate(-66.7962 -445)"/><path class="cls-5" d="M928,497,677,897,547,912l-147-6Z" transform="translate(-66.7962 -445)"/><path class="cls-9" d="M400,906,766,497H928Z" transform="translate(-66.7962 -445)"/><path class="cls-4" d="M400,906l-105,6-76-15L766,497Z" transform="translate(-66.7962 -445)"/><path class="cls-3" d="M219,897l-64-4-10-14L761,500Z" transform="translate(-66.7962 -445)"/><path class="cls-3" d="M161,900l58,9L1229,2216Z" transform="translate(-66.7962 -445)"/><path class="cls-4" d="M219,909l74,9,98,12,838,1286Q724,1562.5,219,909Z" transform="translate(-66.7962 -445)"/><path class="cls-5" d="M391,930l149-7,141,15q274,639,548,1278Z" transform="translate(-66.7962 -445)"/><path class="cls-6" d="M681,938l178-15,176,19q97,637,194,1274Q955,1577,681,938Z" transform="translate(-66.7962 -445)"/><path class="cls-7" d="M1035,942l183-21,187,20c-62.6666,420-113.3334,855-176,1275q-50.5368-321.3558-99.5-643Q1081.4856,1257.5875,1035,942Z" transform="translate(-66.7962 -445)"/><path class="cls-6" d="M1405,941l155-12,197,12L1229,2216Q1317,1578.5,1405,941Z" transform="translate(-66.7962 -445)"/><path class="cls-5" d="M1757,941l143-21,136,8L1229,2216Z" transform="translate(-66.7962 -445)"/><path class="cls-4" d="M2036,928l123-16,75,6L1229,2216Z" transform="translate(-66.7962 -445)"/><path class="cls-3" d="M2285,908l-51,10L1229,2216Z" transform="translate(-66.7962 -445)"/></g></svg>