<svg id="Transparency_test_2_copy" data-name="Transparency test 2 copy" xmlns="http://www.w3.org/2000/svg" viewBox="0 0 2262.6727 1852.9954"><defs><style>.cls-1{fill:#c40e35;}.cls-2{fill:#292929;}.cls-3{opacity:0.22;}.cls-4{fill:#f9d91c;}.cls-17,.cls-5{opacity:0.3;}.cls-6{fill:#ffc943;}.cls-19,.cls-7{opacity:0.45;}.cls-21,.cls-8{opacity:0.6;}.cls-9{opacity:0.75;}.cls-10{opacity:0.85;}.cls-11{opacity:0.54;}.cls-12{opacity:0.72;}.cls-13{opacity:0.66;}.cls-14{opacity:0.36;}.cls-15,.cls-16,.cls-17,.cls-18,.cls-19,.cls-20,.cls-21{fill:#000503;}.cls-15{opacity:0.2;}.cls-16{opacity:0.1;}.cls-18{opacity:0.4;}.cls-20{opacity:0.55;}</style></defs><polygon class="cls-1" points="29.404 454.028 47.399 403.644 661.453 26 1590.054 26 2218.742 405.875 2233.741 454.62 1131.299 1811.748 29.404 454.028"/><path class="cls-2" d="M1680,497l614,371,8,26L1228.5,2215.5,156,894l10-28L766,497h914m14.49-52H751.29l-12.53,7.7061-600,369-15.5784,9.5807L117.0292,848.51l-10,28-9.8377,27.5461,18.4323,22.7119,1072.5,1321.5,40.3573,49.7268,40.38-49.7085,1073.5-1321.5,17.5032-21.5469L2351.7,878.7077l-8-26-5.8327-18.9569-16.9754-10.257-614-371L1694.49,445Z" transform="translate(-97.1915 -445)"/><g id="Layer_24" data-name="Layer 24" class="cls-3"><polygon class="cls-4" points="1299.022 559.65 1182.808 1105.534 1123.808 1752.177 1260.231 1110.003 1299.022 559.65"/><polygon class="cls-4" points="1870.036 589.959 1469.621 1184.489 1131.808 1770 1519.357 1187.886 1870.036 589.959"/><polygon class="cls-4" points="610.808 574 914.741 1155.914 1131.808 1770 830.808 1166.462 610.808 574"/><polygon class="cls-4" points="277.266 665.125 1131.808 1770 712.808 1187.086 277.266 665.125"/></g><g id="Yellow"><g class="cls-5"><polygon class="cls-6" points="1582.808 52 2196.808 423 2185.808 441 2125.808 452 1582.808 52"/></g><g class="cls-7"><path class="cls-6" d="M2036,897l114,5,73-5c-180.6666-133.3333-362.3334-266.6667-543-400C1798,627,1918,767,2036,897Z" transform="translate(-97.1915 -445)"/></g><g class="cls-8"><path class="cls-6" d="M1680,497l356,400-116,13-162-13c-34.6666-133.3333-104-400-104-400Z" transform="translate(-97.1915 -445)"/></g><g class="cls-9"><path class="cls-6" d="M1318,497c29.6666,135,89,397,89,397l166,18,185-15Z" transform="translate(-97.1915 -445)"/></g><g class="cls-10"><path class="cls-6" d="M1318,497s-188,261-283,396l192,19,180-18Z" transform="translate(-97.1915 -445)"/></g><g class="cls-9"><path class="cls-6" d="M928,497,677,897l179,9c59-1.3333,179-13,179-13S963,632,928,497Z" transform="translate(-97.1915 -445)"/></g><g class="cls-8"><path class="cls-6" d="M928,497,677,897,541,913l-141-7Z" transform="translate(-97.1915 -445)"/></g><g class="cls-7"><path class="cls-6" d="M400,906l-105,6-76-15L766,497Z" transform="translate(-97.1915 -445)"/></g><g class="cls-5"><path class="cls-6" d="M219,897l-43-12-10-19S755.78,492.23,761,500C766.0675,507.5423,219,897,219,897Z" transform="translate(-97.1915 -445)"/></g><g class="cls-5"><path class="cls-6" d="M156,894l19-1,51,25L1229,2216C871,1775,156,894,156,894Z" transform="translate(-97.1915 -445)"/></g><g class="cls-7"><path class="cls-6" d="M226,918h67l98,12,838,1286C892.3333,1780.3334,226,918,226,918Z" transform="translate(-97.1915 -445)"/></g><g class="cls-8"><path class="cls-6" d="M391,930l149-7,141,15q274,639,548,1278Z" transform="translate(-97.1915 -445)"/></g><g class="cls-9"><path class="cls-6" d="M681,938l178-15,176,19q97,637,194,1274Q955,1577,681,938Z" transform="translate(-97.1915 -445)"/></g><g class="cls-10"><path class="cls-6" d="M1035,942l191-13,179,12s-117.3334,850-176,1275C1164.3334,1791.3334,1035,942,1035,942Z" transform="translate(-97.1915 -445)"/></g><g class="cls-9"><path class="cls-6" d="M1405,941l169-11,183,11L1229,2216C1287.6666,1791,1405,941,1405,941Z" transform="translate(-97.1915 -445)"/></g><g class="cls-8"><path class="cls-6" d="M1757,941l160-21h122s-541,866.6666-810,1296Z" transform="translate(-97.1915 -445)"/></g><g class="cls-7"><path class="cls-6" d="M2039,920l120-8h73s-668,871.3334-1003,1304C1498,1786.6666,2039,920,2039,920Z" transform="translate(-97.1915 -445)"/></g><g class="cls-5"><path class="cls-6" d="M2302,894h-19l-51,18S1224.6462,2212.5579,1229,2216C1233.4191,2219.4939,2302,894,2302,894Z" transform="translate(-97.1915 -445)"/></g><g class="cls-11"><path class="cls-6" d="M400,906,766,497H928Z" transform="translate(-97.1915 -445)"/></g><g class="cls-12"><path class="cls-6" d="M928,497c35,135,107,396,107,396l283-396Z" transform="translate(-97.1915 -445)"/></g><g class="cls-13"><path class="cls-6" d="M1758,897,1318,497h336Q1706,697,1758,897Z" transform="translate(-97.1915 -445)"/></g></g><g id="Layer_14_copy_2" data-name="Layer 14 copy 2" class="cls-5"><polygon class="cls-1" points="989.278 834 894.808 1242 1131.808 1770 1216.923 1153.399 989.278 834"/><polygon class="cls-1" points="1216.808 1153 1131.808 1770 1463.279 1240.122 1505.836 866.809 1216.808 1153"/><polygon class="cls-1" points="889.808 1219 610.947 970.683 761.808 1291.185 1131.808 1770 889.808 1219"/><polygon class="cls-1" points="1717.808 1005 1462.808 1240 1131.808 1770 1552.808 1255 1717.808 1005"/><polygon class="cls-1" points="562.179 1068.215 756.732 1283 1131.808 1770 562.179 1068.215"/></g><g id="slice_copy_4" data-name="slice copy 4" class="cls-14"><polygon class="cls-15" points="937.808 448 762.27 461 761.808 478 937.808 497 1131.808 484 1131.808 467 937.808 448"/><polygon class="cls-16" points="1309.808 449 1475.808 467 1475.808 485 1307.808 497 1131.808 484 1131.808 467 1309.808 449"/><polygon class="cls-17" points="761.808 461 761.808 478 583.808 493 442.808 478 442.808 468 579.808 452 761.808 461"/><polygon class="cls-15" points="1660.808 452 1822.808 465 1819.325 475 1659.808 497 1475.808 485 1475.808 467 1660.808 452"/><polygon class="cls-17" points="1938.808 452 2052.808 457 2052.808 467 1941.808 475 1819.808 475 1822.808 465 1938.808 452"/><polygon class="cls-18" points="2124.808 452 2184.808 441 2184.808 449 2134.808 467 2052.808 467 2052.808 457 2124.808 452"/><polygon class="cls-19" points="302.808 461 442.808 468 442.808 478 293.808 485 195.808 473 195.808 467 302.808 461"/><polygon class="cls-20" points="121.808 452 195.808 467 195.808 473 128.808 473 77.808 448 77.808 440 121.808 452"/><polygon class="cls-20" points="2184.808 441 2184.808 449 2204.808 449 2196.808 423 2184.808 441"/><polygon class="cls-21" points="68.808 421 58.808 448 77.808 448 77.808 440 68.808 421"/></g></svg>